#N canvas 0 0 500 500 ;
#X obj 30 310 noise~;
#X obj 60 310 phasor~ 660;
#X obj 45 335 +~;
#X obj 45 360 *~ 0.5;
#X obj 120 360 phasor~ 220;
#X obj 90 235 osc~ 2.7;
#X obj 105 260 *~;
#X obj 120 235 sig~ 1;
#X obj 135 260 osc~ 5.2;
#X obj 120 285 *~;
#X obj 120 310 *~ 25;
#X obj 120 335 +~ 220;
#X obj 82 385 +~;
#X obj 82 410 *~ 0.5;
#X obj 209 335 noise~;
#X obj 194 360 +~;
#X obj 179 335 sig~ 0;
#X obj 194 385 *~ 0.5;
#X obj 254 360 phasor~ 308;
#X obj 269 335 noise~;
#X obj 299 335 osc~ 9;
#X obj 284 360 *~;
#X obj 269 385 *~;
#X obj 232 410 *~;
#X obj 157 436 *~;
#X obj 321 285 phasor~ 176;
#X obj 321 209 osc~ 3;
#X obj 321 235 *~ 19;
#X obj 321 260 +~ 176;
#X obj 381 235 noise~;
#X obj 411 235 osc~ 572;
#X obj 411 159 osc~ 9.4;
#X obj 411 184 *~ 43;
#X obj 411 209 +~ 572;
#X obj 396 260 +~;
#X obj 396 285 *~ 0.5;
#X obj 359 310 +~;
#X obj 359 335 *~ 0.5;
#X obj 456 285 osc~ 8.3;
#X obj 486 285 osc~ 7.1;
#X obj 471 310 *~;
#X obj 576 285 osc~ 2.7;
#X obj 561 310 *~;
#X obj 546 285 sig~ 1;
#X obj 516 335 *~;
#X obj 437 360 *~;
#X obj 665 310 phasor~ 132;
#X obj 591 260 osc~ 484;
#X obj 576 159 osc~ 3.1;
#X obj 621 134 osc~ 2.5;
#X obj 606 159 *~;
#X obj 591 134 sig~ 1;
#X obj 591 184 *~;
#X obj 591 209 *~ 52;
#X obj 591 235 +~ 484;
#X obj 680 260 phasor~ 660;
#X obj 665 159 osc~ 4.4;
#X obj 695 159 osc~ 7.2;
#X obj 680 184 *~;
#X obj 680 209 *~ 55;
#X obj 680 235 +~ 660;
#X obj 636 285 *~;
#X obj 740 260 osc~ 2.2;
#X obj 770 260 osc~ 7.9;
#X obj 755 285 *~;
#X obj 695 310 *~;
#X obj 680 335 +~;
#X obj 680 360 *~ 0.5;
#X obj 559 385 +~;
#X obj 559 410 *~ 0.5;
#X obj 589 410 osc~ 6.8;
#X obj 574 436 *~;
#X obj 365 461 +~;
#X obj 365 486 *~ 0.5;
#X obj 395 486 osc~ 6.5;
#X obj 380 511 *~;
#X obj 380 536 dac~;
#X connect 0 0 2 0;
#X connect 1 0 2 1;
#X connect 2 0 3 0;
#X connect 5 0 6 0;
#X connect 7 0 6 1;
#X connect 6 0 9 0;
#X connect 8 0 9 1;
#X connect 9 0 10 0;
#X connect 10 0 11 0;
#X connect 11 0 4 0;
#X connect 3 0 12 0;
#X connect 4 0 12 1;
#X connect 12 0 13 0;
#X connect 16 0 15 0;
#X connect 14 0 15 1;
#X connect 15 0 17 0;
#X connect 19 0 21 0;
#X connect 20 0 21 1;
#X connect 18 0 22 0;
#X connect 21 0 22 1;
#X connect 17 0 23 0;
#X connect 22 0 23 1;
#X connect 13 0 24 0;
#X connect 23 0 24 1;
#X connect 26 0 27 0;
#X connect 27 0 28 0;
#X connect 28 0 25 0;
#X connect 31 0 32 0;
#X connect 32 0 33 0;
#X connect 33 0 30 0;
#X connect 29 0 34 0;
#X connect 30 0 34 1;
#X connect 34 0 35 0;
#X connect 25 0 36 0;
#X connect 35 0 36 1;
#X connect 36 0 37 0;
#X connect 38 0 40 0;
#X connect 39 0 40 1;
#X connect 43 0 42 0;
#X connect 41 0 42 1;
#X connect 40 0 44 0;
#X connect 42 0 44 1;
#X connect 37 0 45 0;
#X connect 44 0 45 1;
#X connect 51 0 50 0;
#X connect 49 0 50 1;
#X connect 48 0 52 0;
#X connect 50 0 52 1;
#X connect 52 0 53 0;
#X connect 53 0 54 0;
#X connect 54 0 47 0;
#X connect 56 0 58 0;
#X connect 57 0 58 1;
#X connect 58 0 59 0;
#X connect 59 0 60 0;
#X connect 60 0 55 0;
#X connect 47 0 61 0;
#X connect 55 0 61 1;
#X connect 62 0 64 0;
#X connect 63 0 64 1;
#X connect 61 0 65 0;
#X connect 64 0 65 1;
#X connect 46 0 66 0;
#X connect 65 0 66 1;
#X connect 66 0 67 0;
#X connect 45 0 68 0;
#X connect 67 0 68 1;
#X connect 68 0 69 0;
#X connect 69 0 71 0;
#X connect 70 0 71 1;
#X connect 24 0 72 0;
#X connect 71 0 72 1;
#X connect 72 0 73 0;
#X connect 73 0 75 0;
#X connect 74 0 75 1;
#X connect 75 0 76 0;
#X connect 75 0 76 1;
