#N canvas 0 0 1600 817 10;
#X declare -lib mrpeach;
#X obj -461 -635 import mrpeach;
#X obj -202 -526 unpackOSC;
#X obj -360 -445 unpack s f f;
#X floatatom -291 -402 5 0 0 0 - - -;
#X floatatom -326 -400 5 0 0 0 - - -;
#X obj -327 -296 ctlout;
#X obj -360 -475 routeOSC /osc_control;
#X obj -202 -476 routeOSC /osc_note;
#X floatatom -168 -420 5 0 0 0 - - -;
#X floatatom -133 -419 5 0 0 0 - - -;
#X obj -292 -424 pipe;
#X obj 114 -316 packOSC;
#X obj 132 -532 notein;
#X floatatom 132 -494 5 0 0 0 - - -;
#X floatatom 148 -474 5 0 0 0 - - -;
#X floatatom 165 -453 5 0 0 0 - - -;
#X obj 115 -422 stripnote;
#X floatatom 166 -401 5 0 0 0 - - -;
#X floatatom 114 -401 5 0 0 0 - - -;
#X text -255 -401 Velocity;
#X msg 177 -263 disconnect;
#X obj 114 -236 udpsend;
#X obj -202 -450 unpack s f f;
#X obj -202 -553 udpreceive 7777;
#X obj -341 -126 ctlout;
#X obj -341 -230 ctlin;
#X floatatom -341 -197 5 0 0 0 - - -;
#X floatatom -329 -170 5 0 0 0 - - -;
#X floatatom -314 -149 5 0 0 0 - - -;
#X msg 178 -283 connect 127.0.0.1 7779;
#X obj 374 -377 timer;
#X obj 374 -397 bng 15 250 50 0 empty empty empty 17 7 0 10 -262144
-1 -1;
#X obj 401 -397 bng 15 250 50 0 empty empty empty 17 7 0 10 -262144
-1 -1;
#X floatatom 374 -335 5 0 0 0 - - -;
#X obj 374 -355 >= 500;
#X obj 374 -309 until;
#X obj 374 -457 r noteon;
#X obj 166 -380 s noteon;
#X obj 234 -458 s noteinvel;
#X obj 401 -431 r noteinvel;
#X obj 374 -264 send piano_noteoff;
#X obj 205 -333 receive piano_noteoff;
#X obj -186 -354 send osc_note;
#X obj 236 -389 receive osc_note;
#X msg 374 -287 /notein off;
#X obj 113 -144 routeOSC /osc_pnote;
#X floatatom 147 -99 5 0 0 0 - - -;
#X floatatom 182 -99 5 0 0 0 - - -;
#X obj 113 -122 unpack s f f;
#X floatatom 143 -51 5 0 0 0 - - -;
#X floatatom 231 -54 5 0 0 0 - - -;
#X msg 230 -100 20000;
#X obj 143 -75 makenote \$1 500;
#X obj 113 -165 unpackOSC;
#X obj 113 -192 udpreceive 7778;
#X obj 161 -6 noteout;
#X obj 225 -515 noteout;
#X msg 114 -355 /notein \$1;
#X msg 236 -367 /osc_note \$1;
#X obj -168 -375 noteout 10;
#X text 290 -518 send to daw;
#X text 131 -558 input from keyboard;
#X msg -293 -323 16;
#X connect 1 0 6 0;
#X connect 1 0 7 0;
#X connect 2 1 4 0;
#X connect 2 2 10 0;
#X connect 3 0 5 0;
#X connect 4 0 62 0;
#X connect 4 0 5 1;
#X connect 6 0 2 0;
#X connect 7 0 22 0;
#X connect 8 0 42 0;
#X connect 8 0 59 0;
#X connect 9 0 59 1;
#X connect 10 0 3 0;
#X connect 11 0 21 0;
#X connect 12 0 13 0;
#X connect 12 0 56 0;
#X connect 12 1 14 0;
#X connect 12 1 56 1;
#X connect 12 2 15 0;
#X connect 13 0 16 0;
#X connect 14 0 16 1;
#X connect 14 0 38 0;
#X connect 16 0 18 0;
#X connect 16 1 17 0;
#X connect 17 0 37 0;
#X connect 18 0 57 0;
#X connect 20 0 21 0;
#X connect 22 1 8 0;
#X connect 22 2 9 0;
#X connect 23 0 1 0;
#X connect 25 0 26 0;
#X connect 25 1 27 0;
#X connect 25 2 28 0;
#X connect 26 0 24 0;
#X connect 27 0 24 1;
#X connect 28 0 24 2;
#X connect 29 0 21 0;
#X connect 30 0 34 0;
#X connect 31 0 30 0;
#X connect 32 0 30 1;
#X connect 33 0 35 0;
#X connect 34 0 33 0;
#X connect 35 0 44 0;
#X connect 36 0 31 0;
#X connect 39 0 32 0;
#X connect 41 0 11 0;
#X connect 43 0 58 0;
#X connect 44 0 40 0;
#X connect 45 0 48 0;
#X connect 46 0 52 0;
#X connect 47 0 52 1;
#X connect 48 1 46 0;
#X connect 48 2 47 0;
#X connect 49 0 55 0;
#X connect 50 0 55 1;
#X connect 51 0 52 2;
#X connect 52 0 49 0;
#X connect 52 1 50 0;
#X connect 53 0 45 0;
#X connect 54 0 53 0;
#X connect 57 0 11 0;
#X connect 62 0 5 2;
