#N canvas 186 105 550 572 10;
#X msg 98 52 start;
#X msg 52 64 stop;
#X obj 38 126 readsf~ 2;
#X msg 287 240 open audio/chord.wav;
#X obj 36 157 dac~ 1 2;
#X obj 287 91 bng 15 250 50 0 empty empty empty 17 7 0 10 -262144 -1
-1;
#X obj 168 472 switch 5;
#X msg 306 218 open audio/chord.wav;
#X msg 322 195 open audio/chord.wav;
#X msg 338 174 open audio/chord.wav;
#X msg 350 153 open audio/chord.wav;
#X floatatom 168 421 5 0 0 0 - - -;
#X obj 168 379 random 5;
#X obj 168 401 + 1;
#X obj 150 496 bng 15 250 50 0 empty empty empty 17 7 0 10 -262144
-1 -1;
#X connect 0 0 2 0;
#X connect 1 0 2 0;
#X connect 2 0 4 0;
#X connect 2 1 4 1;
#X connect 2 2 5 0;
#X connect 3 0 6 1;
#X connect 5 0 3 0;
#X connect 5 0 7 0;
#X connect 5 0 8 0;
#X connect 5 0 9 0;
#X connect 5 0 12 0;
#X connect 6 0 2 0;
#X connect 6 0 14 0;
#X connect 7 0 6 2;
#X connect 8 0 6 3;
#X connect 9 0 6 4;
#X connect 10 0 6 5;
#X connect 11 0 6 0;
#X connect 12 0 13 0;
#X connect 13 0 11 0;
#X connect 14 0 0 0;
